G04 ================== begin FILE IDENTIFICATION RECORD ==================*
G04 Layout Name:  SCHEMA_1.brd*
G04 Film Name:    BOTTOM*
G04 File Format:  Gerber RS274X*
G04 File Origin:  Cadence Allegro 17.2-S025*
G04 Origin Date:  Fri Jan 23 21:29:11 2026*
G04 *
G04 Layer:  ETCH/BOTTOM*
G04 Layer:  PIN/BOTTOM*
G04 Layer:  VIA CLASS/BOTTOM*
G04 *
G04 Offset:    (0.0 0.0)*
G04 Mirror:    No*
G04 Mode:      Positive*
G04 Rotation:  0*
G04 FullContactRelief:  No*
G04 UndefLineWidth:     8.0*
G04 ================== end FILE IDENTIFICATION RECORD ====================*
%FSLAX53Y53*MOIN*%
%IR0*IPPOS*OFA0.00000B0.00000*MIA0B0*SFA1.00000B1.00000*%
%ADD14C,.06*%
%ADD10C,.024*%
%ADD15C,.052*%
%ADD11C,.025*%
%ADD13C,.065*%
%ADD16R,.06X.06*%
%ADD12R,.052X.052*%
%ADD17C,.0079*%
%ADD18C,.047*%
G75*
%LPD*%
G75*
G54D10*
X155Y1350D03*
Y1205D03*
X250Y1100D03*
X500Y1105D03*
X290Y1000D03*
X410Y1040D03*
X490Y1245D03*
X335Y1650D03*
X490D03*
X758Y1075D03*
X795Y960D03*
X800Y955D03*
X585Y1040D03*
X750Y1169D03*
X735Y1650D03*
X825Y815D03*
X1015Y790D03*
X1100D03*
Y650D03*
X1025Y575D03*
X915Y965D03*
X910Y830D03*
X1030D03*
X850Y1650D03*
X1065D03*
X1265Y760D03*
X1255Y1105D03*
X1215Y965D03*
X1180Y825D03*
X1200Y1325D03*
X1190Y1650D03*
X1480Y465D03*
Y730D03*
Y1650D03*
X1590D03*
G54D11*
X140Y1825D03*
X1828Y142D03*
G54D12*
X300Y400D03*
X1150D03*
G54D13*
X350Y700D03*
Y550D03*
X750Y700D03*
Y550D03*
X1600Y650D03*
Y550D03*
G54D14*
X250Y1000D03*
Y1100D03*
X300Y1650D03*
Y1550D03*
Y1450D03*
Y1750D03*
X800Y900D03*
X700D03*
X800Y1200D03*
X700D03*
X600D03*
X650Y1650D03*
Y1550D03*
Y1450D03*
Y1750D03*
X1100Y900D03*
X1000D03*
X900D03*
X1100Y1200D03*
X1000D03*
X900D03*
X1000Y1650D03*
Y1550D03*
Y1450D03*
Y1750D03*
X1300Y650D03*
Y550D03*
X1400Y900D03*
X1300D03*
X1200D03*
X1400Y1200D03*
X1300D03*
X1200D03*
X1350Y1650D03*
Y1550D03*
Y1450D03*
Y1750D03*
X1700Y1650D03*
Y1550D03*
Y1450D03*
Y1750D03*
X1750Y1000D03*
Y1100D03*
G54D15*
X600Y200D03*
X800Y400D03*
X1450Y200D03*
X1650Y400D03*
G54D16*
X600Y900D03*
G54D17*
G01X490Y1245D02*
Y1113D01*
X498Y1105D01*
X500D01*
G01X410Y1040D02*
X585D01*
G01X750Y1169D02*
X720Y1139D01*
Y1113D01*
X758Y1075D01*
G01X1015Y790D02*
X1100D01*
G01Y650D02*
X1025Y575D01*
G01X1215Y965D02*
X915D01*
G01X1180Y825D02*
X1159D01*
X1154Y830D01*
X1030D01*
G01X1200Y1325D02*
X1245D01*
X1255Y1315D01*
Y1105D01*
G54D18*
G01X155Y1205D02*
Y1350D01*
G01X290Y1000D02*
X315Y975D01*
X739D01*
X754Y960D01*
X795D01*
G01X335Y1650D02*
X490D01*
G01X825Y815D02*
Y782D01*
X897Y710D01*
X1174D01*
X1224Y760D01*
X1265D01*
G01X735Y1650D02*
X850D01*
G01X1065D02*
X1190D01*
G01X1480Y730D02*
Y465D01*
G01Y1650D02*
X1590D01*
M02*
